<svg width="192" height="192" viewBox="0 0 192 192" xmlns="http://www.w3.org/2000/svg">
      <defs><radialGradient id="sky" cx=".5" cy=".35" r="1"><stop offset="0" stop-color="#1b2a60"></stop><stop offset="1" stop-color="#080d28"></stop></radialGradient><filter id="b" x="-30%" y="-30%" width="160%" height="160%"><feGaussianBlur stdDeviation="7"></feGaussianBlur></filter>
    <radialGradient id="glow_t1a" cx=".5" cy=".5" r=".5"><stop offset="0" stop-color="#ff5f9e" stop-opacity=".95"></stop><stop offset=".42" stop-color="#ff5f9e" stop-opacity=".42"></stop><stop offset="1" stop-color="#ff5f9e" stop-opacity="0"></stop></radialGradient>
    <radialGradient id="core_t1a" cx=".5" cy=".5" r=".5"><stop offset="0" stop-color="#ffffff"></stop><stop offset=".38" stop-color="#ffffff"></stop><stop offset=".72" stop-color="#ff8fbf"></stop><stop offset="1" stop-color="#ff8fbf" stop-opacity=".9"></stop></radialGradient>
    <radialGradient id="glow_t1b" cx=".5" cy=".5" r=".5"><stop offset="0" stop-color="#ff8f33" stop-opacity=".95"></stop><stop offset=".42" stop-color="#ff8f33" stop-opacity=".42"></stop><stop offset="1" stop-color="#ff8f33" stop-opacity="0"></stop></radialGradient>
    <radialGradient id="core_t1b" cx=".5" cy=".5" r=".5"><stop offset="0" stop-color="#ffffff"></stop><stop offset=".38" stop-color="#ffffff"></stop><stop offset=".72" stop-color="#ffb257"></stop><stop offset="1" stop-color="#ffb257" stop-opacity=".9"></stop></radialGradient></defs>
      <rect width="192" height="192" rx="44" fill="url(#sky)"></rect>
      <g filter="url(#b)" opacity=".9">
      <line x1="26" y1="166" x2="166" y2="26" stroke="#8fa8ff" stroke-width="46" stroke-linecap="round" opacity=".10"></line>
      <line x1="26" y1="166" x2="166" y2="26" stroke="#dbe4ff" stroke-width="22" stroke-linecap="round" opacity=".12"></line></g>
      <circle cx="98.3" cy="95.0" r="1.33" fill="#fff" opacity="0.81"></circle><circle cx="92.4" cy="81.8" r="1.24" fill="#fff" opacity="0.56"></circle><circle cx="100.5" cy="106.1" r="1.15" fill="#fff" opacity="0.70"></circle><circle cx="41.7" cy="136.7" r="0.75" fill="#fff" opacity="0.51"></circle><circle cx="99.6" cy="76.5" r="1.29" fill="#fff" opacity="0.54"></circle><circle cx="150.7" cy="54.3" r="1.06" fill="#fff" opacity="0.67"></circle><circle cx="51.8" cy="121.4" r="2.17" fill="#fff" opacity="0.46"></circle><circle cx="51.7" cy="150.7" r="0.94" fill="#fff" opacity="0.64"></circle><circle cx="136.8" cy="40.1" r="2.10" fill="#fff" opacity="0.52"></circle><circle cx="20.6" cy="153.5" r="1.46" fill="#fff" opacity="0.61"></circle><circle cx="63.9" cy="128.2" r="0.65" fill="#fff" opacity="0.68"></circle><circle cx="31.1" cy="158.5" r="1.94" fill="#fff" opacity="0.55"></circle><circle cx="88.1" cy="97.6" r="0.58" fill="#fff" opacity="0.54"></circle><circle cx="128.1" cy="55.4" r="0.94" fill="#fff" opacity="0.80"></circle><circle cx="40.3" cy="135.5" r="1.40" fill="#fff" opacity="0.36"></circle><circle cx="75.1" cy="111.7" r="2.34" fill="#fff" opacity="0.67"></circle><circle cx="92.4" cy="117.4" r="1.09" fill="#fff" opacity="0.47"></circle><circle cx="87.6" cy="83.5" r="1.11" fill="#fff" opacity="0.53"></circle><circle cx="34.4" cy="139.8" r="1.43" fill="#fff" opacity="0.60"></circle><circle cx="41.7" cy="152.8" r="1.77" fill="#fff" opacity="0.88"></circle><circle cx="111.9" cy="84.5" r="1.14" fill="#fff" opacity="0.34"></circle><circle cx="120.4" cy="78.0" r="2.13" fill="#fff" opacity="0.36"></circle><circle cx="48.4" cy="149.9" r="1.27" fill="#fff" opacity="0.85"></circle><circle cx="84.2" cy="118.8" r="0.61" fill="#fff" opacity="0.46"></circle><circle cx="118.8" cy="72.9" r="0.83" fill="#fff" opacity="0.73"></circle><circle cx="61.4" cy="113.3" r="0.99" fill="#fff" opacity="0.39"></circle><circle cx="149.6" cy="60.9" r="0.51" fill="#fff" opacity="0.55"></circle><circle cx="146.5" cy="48.4" r="1.51" fill="#fff" opacity="0.28"></circle><circle cx="95.3" cy="96.4" r="0.80" fill="#fff" opacity="0.32"></circle><circle cx="48.4" cy="164.7" r="1.49" fill="#fff" opacity="0.80"></circle><circle cx="164.8" cy="47.6" r="0.52" fill="#fff" opacity="0.65"></circle><circle cx="79.5" cy="109.0" r="0.56" fill="#fff" opacity="0.32"></circle><circle cx="85.9" cy="96.4" r="1.20" fill="#fff" opacity="0.54"></circle><circle cx="75.2" cy="120.5" r="1.34" fill="#fff" opacity="0.46"></circle>
      
    <circle cx="60" cy="66" r="39.0" fill="url(#glow_t1a)"></circle>
    <path transform="translate(60,66) scale(2.6)" d="M0,-10 Q1.4,-1.4 10,0 Q1.4,1.4 0,10 Q-1.4,1.4 -10,0 Q-1.4,-1.4 0,-10 Z" fill="url(#core_t1a)"></path>
    <circle cx="60" cy="66" r="3.4" fill="#fff" opacity=".95"></circle>
    <circle cx="132" cy="126" r="42.0" fill="url(#glow_t1b)"></circle>
    <path transform="translate(132,126) scale(2.8)" d="M0,-10 Q1.4,-1.4 10,0 Q1.4,1.4 0,10 Q-1.4,1.4 -10,0 Q-1.4,-1.4 0,-10 Z" fill="url(#core_t1b)"></path>
    <circle cx="132" cy="126" r="3.6" fill="#fff" opacity=".95"></circle>
      <path transform="translate(150,52) scale(1.7)" d="M0,4 C-1.2,0.4 -6,-0.4 -6,-4.2 C-6,-7 -3.2,-8 0,-4.6 C3.2,-8 6,-7 6,-4.2 C6,-0.4 1.2,0.4 0,4 Z" fill="#ffb6d4"></path></svg>
